<svg width="900" height="500" viewBox="0 0 900 500" xmlns="http://www.w3.org/2000/svg">
<defs>
  <style>
    @keyframes scan3{0%{transform:translateY(-500px)}100%{transform:translateY(500px)}}
    @keyframes np3a{0%,100%{r:12;opacity:.4}50%{r:16;opacity:1}}
    @keyframes np3b{0%,100%{r:12;opacity:.4}50%{r:16;opacity:1}}
    @keyframes np3c{0%,100%{r:12;opacity:.4}50%{r:16;opacity:1}}
    @keyframes np3d{0%,100%{r:12;opacity:.4}50%{r:16;opacity:1}}
    @keyframes np3e{0%,100%{r:12;opacity:.4}50%{r:16;opacity:1}}
    @keyframes pipeG3{0%,100%{stroke-opacity:.2}50%{stroke-opacity:.8}}
    @keyframes rp1{0%{r:6;opacity:1}100%{r:18;opacity:0}}
    @keyframes rp2{0%{r:6;opacity:1}100%{r:18;opacity:0}}
    @keyframes rp3{0%{r:6;opacity:1}100%{r:18;opacity:0}}
    @keyframes g3f1{0%{transform:translateX(0) translateY(0);opacity:0}5%{opacity:1}90%{opacity:1}100%{transform:translateX(85px) translateY(-30px);opacity:0}}
    @keyframes g3f2{0%{transform:translateX(0) translateY(0);opacity:0}5%{opacity:1}90%{opacity:1}100%{transform:translateX(85px) translateY(0px);opacity:0}}
    @keyframes g3f3{0%{transform:translateX(0) translateY(0);opacity:0}5%{opacity:1}90%{opacity:1}100%{transform:translateX(85px) translateY(25px);opacity:0}}
    @keyframes pf1{0%{transform:translateX(0);opacity:0}5%{opacity:1}90%{opacity:1}100%{transform:translateX(130px);opacity:0}}
    @keyframes pf2{0%{transform:translateX(0);opacity:0}5%{opacity:1}90%{opacity:1}100%{transform:translateX(125px);opacity:0}}
    @keyframes pf3{0%{transform:translateX(0);opacity:0}5%{opacity:1}90%{opacity:1}100%{transform:translateX(105px);opacity:0}}
    @keyframes wm3{0%{transform:translateX(0)}100%{transform:translateX(160px)}}
    @keyframes winPulse{0%,100%{fill-opacity:.08}50%{fill-opacity:.2}}
    @keyframes winPulse2{0%,100%{fill-opacity:.06}50%{fill-opacity:.16}}
    @keyframes winPulse3{0%,100%{fill-opacity:.05}50%{fill-opacity:.14}}
    @keyframes lateFlash{0%,84%,100%{opacity:0}85%,95%{opacity:1}}
    @keyframes mb3{0%,100%{transform:translateY(0)}50%{transform:translateY(-2px)}}
    @keyframes bqFlash{0%,88%,100%{opacity:.5}89%,96%{opacity:1}}
    .s3{animation:scan3 6s linear infinite}
    .n3a{animation:np3a 2s ease-in-out infinite}
    .n3b{animation:np3b 2s ease-in-out infinite .5s}
    .n3c{animation:np3c 2s ease-in-out infinite 1s}
    .n3d{animation:np3d 2s ease-in-out infinite 1.5s}
    .n3e{animation:np3e 2s ease-in-out infinite 2s}
    .pg3{animation:pipeG3 2.5s ease-in-out infinite}
    .r1p{animation:rp1 2.5s ease-out infinite}
    .r2p{animation:rp2 2.5s ease-out infinite 0.8s}
    .r3p{animation:rp3 2.5s ease-out infinite 1.6s}
    .rf1{animation:g3f1 2.2s linear infinite}
    .rf2{animation:g3f1 2.2s linear infinite .7s}
    .rf3{animation:g3f2 2.4s linear infinite .4s}
    .rf4{animation:g3f3 2.3s linear infinite .9s}
    .rf5{animation:g3f3 2.3s linear infinite 1.8s}
    .pf1a{animation:pf1 2.2s linear infinite .3s}
    .pf1b{animation:pf1 2.2s linear infinite 1.2s}
    .pf2a{animation:pf2 2.4s linear infinite .6s}
    .pf2b{animation:pf2 2.4s linear infinite 1.6s}
    .pf3a{animation:pf3 2.3s linear infinite .9s}
    .pf3b{animation:pf3 2.3s linear infinite 1.9s}
    .wm{animation:wm3 3s linear infinite}
    .wp1{animation:winPulse 3s ease-in-out infinite}
    .wp2{animation:winPulse2 3s ease-in-out infinite 1s}
    .wp3{animation:winPulse3 3s ease-in-out infinite 2s}
    .lf{animation:lateFlash 4s ease-in-out infinite 2s}
    .mb3{animation:mb3 2.5s ease-in-out infinite}
    .bqf{animation:bqFlash 3s ease-in-out infinite}
  </style>
  <linearGradient id="bg3" x1="0%" y1="0%" x2="100%" y2="100%">
    <stop offset="0%" style="stop-color:#020508"/>
    <stop offset="100%" style="stop-color:#040A14"/>
  </linearGradient>
  <linearGradient id="topG3" x1="0%" y1="0%" x2="100%" y2="0%">
    <stop offset="0%" style="stop-color:#1A3A8A"/>
    <stop offset="50%" style="stop-color:#4285F4"/>
    <stop offset="100%" style="stop-color:#1A3A8A"/>
  </linearGradient>
  <filter id="glow3">
    <feGaussianBlur stdDeviation="3" result="blur"/>
    <feMerge><feMergeNode in="blur"/><feMergeNode in="SourceGraphic"/></feMerge>
  </filter>
  <filter id="sglow3">
    <feGaussianBlur stdDeviation="7" result="blur"/>
    <feMerge><feMergeNode in="blur"/><feMergeNode in="SourceGraphic"/></feMerge>
  </filter>
  <marker id="a3B" markerWidth="6" markerHeight="6" refX="5" refY="3" orient="auto">
    <path d="M0,0 L6,3 L0,6 Z" fill="#4285F4" opacity=".8"/>
  </marker>
  <marker id="a3O" markerWidth="6" markerHeight="6" refX="5" refY="3" orient="auto">
    <path d="M0,0 L6,3 L0,6 Z" fill="#FBBC04" opacity=".8"/>
  </marker>
  <marker id="a3G" markerWidth="6" markerHeight="6" refX="5" refY="3" orient="auto">
    <path d="M0,0 L6,3 L0,6 Z" fill="#34A853" opacity=".8"/>
  </marker>
</defs>

<!-- BG -->
<rect width="900" height="500" fill="url(#bg3)"/>

<!-- Stars -->
<g fill="white" opacity=".5">
  <circle cx="45" cy="55" r=".8"/><circle cx="155" cy="85" r=".6"/><circle cx="280" cy="48" r=".7"/>
  <circle cx="600" cy="62" r=".6"/><circle cx="750" cy="45" r=".7"/><circle cx="860" cy="80" r=".8"/>
  <circle cx="30" cy="190" r=".6"/><circle cx="875" cy="170" r=".7"/><circle cx="25" cy="330" r=".7"/>
  <circle cx="878" cy="300" r=".6"/><circle cx="50" cy="420" r=".8"/><circle cx="860" cy="400" r=".6"/>
</g>

<!-- Grid -->
<g stroke="#4285F4" stroke-width=".3" opacity=".03">
  <line x1="0" y1="40" x2="900" y2="40"/><line x1="0" y1="80" x2="900" y2="80"/>
  <line x1="0" y1="120" x2="900" y2="120"/><line x1="0" y1="160" x2="900" y2="160"/>
  <line x1="0" y1="200" x2="900" y2="200"/><line x1="0" y1="240" x2="900" y2="240"/>
  <line x1="0" y1="280" x2="900" y2="280"/><line x1="0" y1="320" x2="900" y2="320"/>
  <line x1="0" y1="360" x2="900" y2="360"/><line x1="0" y1="400" x2="900" y2="400"/>
  <line x1="0" y1="440" x2="900" y2="440"/>
  <line x1="90" y1="0" x2="90" y2="500"/><line x1="180" y1="0" x2="180" y2="500"/>
  <line x1="270" y1="0" x2="270" y2="500"/><line x1="360" y1="0" x2="360" y2="500"/>
  <line x1="450" y1="0" x2="450" y2="500"/><line x1="540" y1="0" x2="540" y2="500"/>
  <line x1="630" y1="0" x2="630" y2="500"/><line x1="720" y1="0" x2="720" y2="500"/>
  <line x1="810" y1="0" x2="810" y2="500"/>
</g>

<!-- Scan -->
<rect class="s3" width="900" height="40" fill="white" opacity=".01"/>

<!-- Shimmer -->
<rect width="200" height="36" y="0">
  <animate attributeName="x" from="-200" to="1100" dur="4s" repeatCount="indefinite"/>
  <animate attributeName="fill" values="#4285F4;#7BAEFF;#4285F4" dur="4s" repeatCount="indefinite"/>
  <animate attributeName="opacity" values="0;.05;0" dur="4s" repeatCount="indefinite"/>
</rect>

<!-- Top bar -->
<rect x="0" y="0" width="900" height="36" fill="url(#topG3)"/>
<text x="18" y="23" font-family="monospace" font-size="12" font-weight="bold" fill="white" letter-spacing="2">🌍 GLOBAL REAL-TIME EVENT PROCESSING PLATFORM</text>
<circle cx="610" cy="18" r="5" fill="#00FF88" filter="url(#glow3)"/>
<circle cx="610" cy="18" r="4" fill="#00FF88">
  <animate attributeName="r" values="4;10;4" dur="2s" repeatCount="indefinite"/>
  <animate attributeName="opacity" values="1;0;1" dur="2s" repeatCount="indefinite"/>
</circle>
<text x="622" y="23" font-family="monospace" font-size="10" fill="#00FF88">LIVE</text>
<text x="665" y="23" font-family="monospace" font-size="10" fill="white" opacity=".8">300K+ events/day</text>
<text x="828" y="23" font-family="monospace" font-size="10" fill="#7BAEFF">GCP</text>

<!-- Title -->
<text x="450" y="67" text-anchor="middle" font-family="monospace" font-size="17" font-weight="bold" fill="white" letter-spacing="3" filter="url(#sglow3)">STATEFUL STREAMING · EVENT-TIME WINDOWING</text>
<text x="450" y="85" text-anchor="middle" font-family="monospace" font-size="10" fill="#4285F4" letter-spacing="3">PUB/SUB  ·  APACHE BEAM  ·  CLOUD DATAFLOW  ·  BIGQUERY</text>

<!-- GLOBAL REGIONS PANEL -->
<rect x="12" y="100" width="115" height="195" rx="5" fill="#040C18" stroke="#1A3A6A" stroke-width=".8"/>
<text x="69" y="116" text-anchor="middle" font-family="monospace" font-size="7.5" fill="#4285F4" font-weight="bold" letter-spacing="1">GLOBAL REGIONS</text>

<!-- Region 1: Asia -->
<circle cx="34" cy="143" r="7" fill="#EA4335" filter="url(#glow3)"/>
<circle cx="34" cy="143" r="6" fill="#EA4335">
  <animate attributeName="r" values="6;14;6" dur="3s" repeatCount="indefinite"/>
  <animate attributeName="opacity" values=".9;0;.9" dur="3s" repeatCount="indefinite"/>
</circle>
<circle cx="34" cy="143" r="6" fill="#EA4335"/>
<text x="46" y="139" font-family="monospace" font-size="7" fill="#EA4335" font-weight="bold">ASIA-SOUTH1</text>
<text x="46" y="150" font-family="monospace" font-size="6" fill="#EA433599">Bangalore</text>
<circle cx="34" cy="143" r="4" fill="#FF6644" class="rf1" filter="url(#glow3)"/>
<circle cx="34" cy="143" r="4" fill="#FF4422" class="rf2" filter="url(#glow3)"/>

<!-- Region 2: US -->
<circle cx="34" cy="190" r="7" fill="#4285F4" filter="url(#glow3)"/>
<circle cx="34" cy="190" r="6" fill="#4285F4">
  <animate attributeName="r" values="6;14;6" dur="3s" repeatCount="indefinite" begin="1s"/>
  <animate attributeName="opacity" values=".9;0;.9" dur="3s" repeatCount="indefinite" begin="1s"/>
</circle>
<circle cx="34" cy="190" r="6" fill="#4285F4"/>
<text x="46" y="186" font-family="monospace" font-size="7" fill="#4285F4" font-weight="bold">US-CENTRAL1</text>
<text x="46" y="197" font-family="monospace" font-size="6" fill="#4285F499">Iowa</text>
<circle cx="34" cy="190" r="4" fill="#4285F4" class="rf3" filter="url(#glow3)"/>

<!-- Region 3: Europe -->
<circle cx="34" cy="237" r="7" fill="#34A853" filter="url(#glow3)"/>
<circle cx="34" cy="237" r="6" fill="#34A853">
  <animate attributeName="r" values="6;14;6" dur="3s" repeatCount="indefinite" begin="2s"/>
  <animate attributeName="opacity" values=".9;0;.9" dur="3s" repeatCount="indefinite" begin="2s"/>
</circle>
<circle cx="34" cy="237" r="6" fill="#34A853"/>
<text x="46" y="233" font-family="monospace" font-size="7" fill="#34A853" font-weight="bold">EUROPE-WEST1</text>
<text x="46" y="244" font-family="monospace" font-size="6" fill="#34A85399">Belgium</text>
<circle cx="34" cy="237" r="4" fill="#34A853" class="rf4" filter="url(#glow3)"/>
<circle cx="34" cy="237" r="4" fill="#2D9448" class="rf5" filter="url(#glow3)"/>

<text x="69" y="275" text-anchor="middle" font-family="monospace" font-size="6.5" fill="#333" font-style="italic">with event_time</text>

<!-- Line from regions to Pub/Sub -->
<line x1="127" y1="190" x2="193" y2="190" stroke="#4285F4" stroke-width="1.5" class="pg3" marker-end="url(#a3B)"/>
<circle cx="131" cy="190" r="4" fill="#EA4335" class="pf1a" filter="url(#glow3)"/>
<circle cx="131" cy="190" r="4" fill="#4285F4" class="pf1b" filter="url(#glow3)"/>

<!-- NODE: PUB/SUB -->
<g transform="translate(230,190)">
  <rect x="-37" y="-34" width="74" height="68" rx="7" fill="#040C18" stroke="#4285F4" stroke-width="1.5" stroke-opacity=".65"/>
  <circle cx="0" cy="-8" r="12" fill="#4285F4" opacity=".12" class="n3a"/>
  <circle cx="0" cy="-8" r="12" fill="none" stroke="#4285F4" stroke-width="1.5" filter="url(#glow3)"/>
  <text x="0" y="-4" text-anchor="middle" font-family="monospace" font-size="8" fill="#7BAEFF" font-weight="bold">P/S</text>
  <text x="0" y="10" text-anchor="middle" font-family="monospace" font-size="7.5" fill="#888">PUB/SUB</text>
  <text x="0" y="24" text-anchor="middle" font-family="monospace" font-size="6.5" fill="#4285F4">global topic</text>
</g>

<!-- Pipe to Beam -->
<line x1="267" y1="190" x2="334" y2="190" stroke="#FBBC04" stroke-width="1.8" class="pg3" marker-end="url(#a3O)"/>
<circle cx="271" cy="190" r="4.5" fill="#FBBC04" class="pf2a" filter="url(#glow3)"/>
<circle cx="271" cy="190" r="4.5" fill="#EA4335" class="pf2b" filter="url(#glow3)"/>

<!-- BEAM / WINDOWING PANEL (CENTER) -->
<rect x="334" y="105" width="260" height="230" rx="6" fill="#030810" stroke="#1A3A6A" stroke-width="1"/>
<text x="464" y="122" text-anchor="middle" font-family="monospace" font-size="9" fill="#FBBC04" font-weight="bold" letter-spacing="1">APACHE BEAM PIPELINE</text>

<!-- Fixed Window -->
<rect x="342" y="130" width="58" height="35" rx="3" fill="#4285F4" class="wp1"/>
<rect x="342" y="130" width="58" height="35" rx="3" fill="none" stroke="#4285F4" stroke-width=".8"/>
<rect x="403" y="130" width="58" height="35" rx="3" fill="#4285F4" class="wp1"/>
<rect x="403" y="130" width="58" height="35" rx="3" fill="none" stroke="#4285F4" stroke-width=".8"/>
<rect x="464" y="130" width="58" height="35" rx="3" fill="#4285F4" class="wp1"/>
<rect x="464" y="130" width="58" height="35" rx="3" fill="none" stroke="#4285F4" stroke-width=".8"/>
<text x="371" y="144" text-anchor="middle" font-family="monospace" font-size="7" fill="#4285F4" font-weight="bold">FIXED</text>
<text x="371" y="157" text-anchor="middle" font-family="monospace" font-size="6.5" fill="#888">1 min</text>
<text x="432" y="144" text-anchor="middle" font-family="monospace" font-size="7" fill="#4285F4" font-weight="bold">FIXED</text>
<text x="432" y="157" text-anchor="middle" font-family="monospace" font-size="6.5" fill="#888">1 min</text>
<text x="493" y="144" text-anchor="middle" font-family="monospace" font-size="7" fill="#4285F4" font-weight="bold">FIXED</text>
<text x="493" y="157" text-anchor="middle" font-family="monospace" font-size="6.5" fill="#888">1 min</text>
<text x="342" y="175" font-family="monospace" font-size="6.5" fill="#888">page_views/min · error_rates</text>

<!-- Sliding Window -->
<rect x="342" y="182" width="88" height="30" rx="3" fill="#34A853" class="wp2"/>
<rect x="342" y="182" width="88" height="30" rx="3" fill="none" stroke="#34A853" stroke-width=".8"/>
<rect x="365" y="182" width="88" height="30" rx="3" fill="#34A853" class="wp2"/>
<rect x="365" y="182" width="88" height="30" rx="3" fill="none" stroke="#34A853" stroke-width=".6" stroke-dasharray="3,2"/>
<rect x="388" y="182" width="88" height="30" rx="3" fill="#34A853" class="wp2"/>
<rect x="388" y="182" width="88" height="30" rx="3" fill="none" stroke="#34A853" stroke-width=".5" stroke-dasharray="3,2"/>
<text x="386" y="196" text-anchor="middle" font-family="monospace" font-size="7" fill="#34A853" font-weight="bold">SLIDING 5m/1m</text>
<text x="386" y="207" text-anchor="middle" font-family="monospace" font-size="6.5" fill="#888">active_users rolling</text>
<text x="342" y="222" font-family="monospace" font-size="6.5" fill="#888">overlap: same event in multiple windows</text>

<!-- Session Window -->
<rect x="342" y="228" width="65" height="30" rx="3" fill="#FBBC04" class="wp3"/>
<rect x="342" y="228" width="65" height="30" rx="3" fill="none" stroke="#FBBC04" stroke-width=".8"/>
<rect x="448" y="228" width="50" height="30" rx="3" fill="#FBBC04" class="wp3"/>
<rect x="448" y="228" width="50" height="30" rx="3" fill="none" stroke="#FBBC04" stroke-width=".8"/>
<text x="374" y="242" text-anchor="middle" font-family="monospace" font-size="7" fill="#FBBC04" font-weight="bold">SESSION 1</text>
<text x="374" y="253" text-anchor="middle" font-family="monospace" font-size="6" fill="#888">30min gap</text>
<text x="473" y="242" text-anchor="middle" font-family="monospace" font-size="7" fill="#FBBC04" font-weight="bold">SESS 2</text>
<text x="473" y="253" text-anchor="middle" font-family="monospace" font-size="6" fill="#888">new session</text>
<text x="342" y="268" font-family="monospace" font-size="6.5" fill="#888">user_sessions · revenue/session</text>

<!-- Watermark bar -->
<text x="342" y="286" font-family="monospace" font-size="7.5" fill="#888">WATERMARK:</text>
<rect x="420" y="276" width="166" height="12" rx="2" fill="#0A1525"/>
<rect x="420" y="276" width="30" height="12" rx="2" fill="#4285F4" opacity=".6" class="wm"/>
<text x="342" y="302" font-family="monospace" font-size="6.5" fill="#EA433599" class="lf">↑ late event (within 2min tolerance)</text>
<text x="342" y="316" font-family="monospace" font-size="6" fill="#555">STATE: per-user sessions survive restarts</text>
<text x="342" y="326" font-family="monospace" font-size="6" fill="#555">DEDUP: event_id stateful 24h window</text>

<!-- Pipe from Beam to BQ -->
<line x1="594" y1="190" x2="672" y2="190" stroke="#34A853" stroke-width="1.8" class="pg3" marker-end="url(#a3G)"/>
<circle cx="598" cy="190" r="4.5" fill="#34A853" class="pf3a" filter="url(#glow3)"/>
<circle cx="598" cy="190" r="4.5" fill="#4285F4" class="pf3b" filter="url(#glow3)"/>

<!-- NODE: BIGQUERY -->
<g transform="translate(712,190)">
  <rect x="-40" y="-40" width="80" height="80" rx="8" fill="#040C18" stroke="#4285F4" stroke-width="2" stroke-opacity=".8"/>
  <circle cx="0" cy="-10" r="14" fill="#4285F4" opacity=".12" class="n3d"/>
  <circle cx="0" cy="-10" r="14" fill="none" stroke="#4285F4" stroke-width="2" filter="url(#glow3)"/>
  <text x="0" y="-6" text-anchor="middle" font-family="monospace" font-size="9" fill="#7BAEFF" font-weight="bold">BQ</text>
  <text x="0" y="8" text-anchor="middle" font-family="monospace" font-size="7.5" fill="#888">BIGQUERY</text>
  <text x="0" y="20" text-anchor="middle" font-family="monospace" font-size="6.5" fill="#4285F4">partitioned</text>
  <text x="0" y="30" text-anchor="middle" font-family="monospace" font-size="6" fill="#4285F4">clustered</text>
</g>

<!-- BQ TABLES -->
<rect x="768" y="105" width="115" height="165" rx="4" fill="#040C18" stroke="#1A3A6A" stroke-width=".8"/>
<text x="825" y="120" text-anchor="middle" font-family="monospace" font-size="7.5" fill="#4285F4" font-weight="bold">BQ TABLES</text>
<line x1="780" y1="127" x2="872" y2="127" stroke="#1A3A6A" stroke-width=".5"/>

<g class="bqf"><rect x="772" y="132" width="107" height="16" rx="2" fill="#4285F420"/>
<text x="780" y="143" font-family="monospace" font-size="7" fill="#34A853">▸ raw_events</text></g>

<text x="780" y="162" font-family="monospace" font-size="7" fill="#888">▸ user_sessions</text>
<text x="780" y="178" font-family="monospace" font-size="7" fill="#888">▸ regional_metrics</text>
<text x="780" y="194" font-family="monospace" font-size="7" fill="#888">▸ hourly_aggregates</text>
<text x="780" y="210" font-family="monospace" font-size="7" fill="#EA4335" class="lf">▸ late_events</text>
<line x1="780" y1="218" x2="872" y2="218" stroke="#1A3A6A" stroke-width=".5"/>
<text x="780" y="230" font-family="monospace" font-size="6" fill="#555">partition: event_date</text>
<text x="780" y="241" font-family="monospace" font-size="6" fill="#555">cluster: event_type</text>
<text x="780" y="252" font-family="monospace" font-size="6" fill="#4285F4">→ 45% faster queries</text>
<text x="780" y="263" font-family="monospace" font-size="6" fill="#34A853">insertId dedup</text>

<!-- METRICS -->
<line x1="18" y1="360" x2="882" y2="360" stroke="#0C1525" stroke-width="1"/>
<g class="mb3"><text x="80" y="387" text-anchor="middle" font-family="monospace" font-size="22" font-weight="bold" fill="#4285F4" filter="url(#glow3)">300K+</text><text x="80" y="405" text-anchor="middle" font-family="monospace" font-size="8" fill="#555" letter-spacing="1">EVENTS/DAY</text></g>
<line x1="155" y1="364" x2="155" y2="412" stroke="#0C1525" stroke-width="1"/>
<g class="mb3"><text x="230" y="387" text-anchor="middle" font-family="monospace" font-size="22" font-weight="bold" fill="#FBBC04" filter="url(#glow3)">&lt;60s</text><text x="230" y="405" text-anchor="middle" font-family="monospace" font-size="8" fill="#555" letter-spacing="1">LATENCY</text></g>
<line x1="305" y1="364" x2="305" y2="412" stroke="#0C1525" stroke-width="1"/>
<g class="mb3"><text x="380" y="387" text-anchor="middle" font-family="monospace" font-size="22" font-weight="bold" fill="#34A853" filter="url(#glow3)">30%↑</text><text x="380" y="405" text-anchor="middle" font-family="monospace" font-size="8" fill="#555" letter-spacing="1">ACCURACY</text></g>
<line x1="450" y1="364" x2="450" y2="412" stroke="#0C1525" stroke-width="1"/>
<g class="mb3"><text x="520" y="387" text-anchor="middle" font-family="monospace" font-size="22" font-weight="bold" fill="#EA4335" filter="url(#glow3)">2min</text><text x="520" y="405" text-anchor="middle" font-family="monospace" font-size="8" fill="#555" letter-spacing="1">WATERMARK</text></g>
<line x1="590" y1="364" x2="590" y2="412" stroke="#0C1525" stroke-width="1"/>
<g class="mb3"><text x="660" y="387" text-anchor="middle" font-family="monospace" font-size="22" font-weight="bold" fill="#FBBC04" filter="url(#glow3)">45%↓</text><text x="660" y="405" text-anchor="middle" font-family="monospace" font-size="8" fill="#555" letter-spacing="1">QUERY TIME</text></g>
<line x1="730" y1="364" x2="730" y2="412" stroke="#0C1525" stroke-width="1"/>
<g class="mb3"><text x="800" y="387" text-anchor="middle" font-family="monospace" font-size="22" font-weight="bold" fill="#34A853" filter="url(#glow3)">3</text><text x="800" y="405" text-anchor="middle" font-family="monospace" font-size="8" fill="#555" letter-spacing="1">WINDOW TYPES</text></g>
<line x1="862" y1="364" x2="862" y2="412" stroke="#0C1525" stroke-width="1"/>
<g class="mb3"><text x="883" y="387" text-anchor="middle" font-family="monospace" font-size="20" font-weight="bold" fill="#4285F4" filter="url(#glow3)">0</text><text x="883" y="405" text-anchor="middle" font-family="monospace" font-size="8" fill="#555" letter-spacing="1">DATA LOSS</text></g>

<!-- Bottom -->
<rect x="0" y="422" width="900" height="78" fill="#030810"/>
<text x="450" y="442" text-anchor="middle" font-family="monospace" font-size="9" fill="#333" letter-spacing="1">EVENT-TIME WINDOWING  ·  WATERMARKING  ·  STATEFUL SESSIONS  ·  EXACTLY-ONCE  ·  MULTI-REGION</text>

<g transform="translate(65,452)">
  <rect x="0" y="0" width="75" height="22" rx="4" fill="#4285F420" stroke="#4285F450" stroke-width=".6"/>
  <text x="37" y="15" text-anchor="middle" font-family="monospace" font-size="8" fill="#7BAEFF">Pub/Sub</text>
</g>
<g transform="translate(153,452)">
  <rect x="0" y="0" width="95" height="22" rx="4" fill="#FBBC0420" stroke="#FBBC0450" stroke-width=".6"/>
  <text x="47" y="15" text-anchor="middle" font-family="monospace" font-size="8" fill="#FBBC04">Apache Beam</text>
</g>
<g transform="translate(261,452)">
  <rect x="0" y="0" width="85" height="22" rx="4" fill="#4285F420" stroke="#4285F450" stroke-width=".6"/>
  <text x="42" y="15" text-anchor="middle" font-family="monospace" font-size="8" fill="#7BAEFF">Dataflow</text>
</g>
<g transform="translate(359,452)">
  <rect x="0" y="0" width="75" height="22" rx="4" fill="#4285F420" stroke="#4285F450" stroke-width=".6"/>
  <text x="37" y="15" text-anchor="middle" font-family="monospace" font-size="8" fill="#7BAEFF">BigQuery</text>
</g>
<g transform="translate(447,452)">
  <rect x="0" y="0" width="55" height="22" rx="4" fill="#3776AB20" stroke="#3776AB50" stroke-width=".6"/>
  <text x="27" y="15" text-anchor="middle" font-family="monospace" font-size="8" fill="#5599CC">Python</text>
</g>
<g transform="translate(515,452)">
  <rect x="0" y="0" width="55" height="22" rx="4" fill="#3776AB20" stroke="#3776AB50" stroke-width=".6"/>
  <text x="27" y="15" text-anchor="middle" font-family="monospace" font-size="8" fill="#5599CC">SQL</text>
</g>
<g transform="translate(583,452)">
  <rect x="0" y="0" width="75" height="22" rx="4" fill="#34A85320" stroke="#34A85350" stroke-width=".6"/>
  <text x="37" y="15" text-anchor="middle" font-family="monospace" font-size="8" fill="#34A853">Jul 2025</text>
</g>

<rect x="0" y="496" width="900" height="4" fill="url(#topG3)"/>
</svg>
